<?xml version="1.0" encoding="UTF-8"?>
<svg width="159px" height="74px" viewBox="0 0 159 74" version="1.1" xmlns="http://www.w3.org/2000/svg" xmlns:xlink="http://www.w3.org/1999/xlink">
    <!-- Generator: Sketch 49.2 (51160) - http://www.bohemiancoding.com/sketch -->
    <title>Page 1</title>
    <desc>Created with Sketch.</desc>
    <defs>
        <polygon id="path-1" points="0.0593410714 0.675961538 0.0593410714 41.0146423 100.663752 41.0146423 100.663752 0.675961538"></polygon>
        <polygon id="path-3" points="0 0.388855769 0 8.31610577 3.61341696 8.31610577 3.61341696 0.388855769 1.92397484e-20 0.388855769"></polygon>
        <polygon id="path-5" points="0.198537054 8.53846154 3.83424241 8.53846154 3.83424241 0.463353846 0.198537054 0.463353846 0.198537054 8.53846154"></polygon>
        <polygon id="path-7" points="3.7146375 8.53846154 0.158432143 8.53846154 0.158432143 0.463425 3.7146375 0.463425 3.7146375 8.53846154"></polygon>
    </defs>
    <g id="Symbols" stroke="none" stroke-width="1" fill="none" fill-rule="evenodd">
        <g id="header" transform="translate(-640.000000, -13.000000)">
            <g transform="translate(0.000000, -197.000000)" id="Page-1">
                <g transform="translate(640.000000, 0.000000)">
                    <g id="Group-3" transform="translate(29.102679, 210.035577)">
                        <mask id="mask-2" fill="white">
                            <use xlink:href="#path-1"></use>
                        </mask>
                        <g id="Clip-2"></g>
                        <path d="M58.0986,16.6102962 L54.1385062,16.8785462 L54.1385062,35.5080462 C55.467292,35.5763538 56.7861402,35.6802385 58.0986,35.81045 L58.0986,16.6102962 Z M19.4488232,11.9141423 L21.9985018,29.98295 C23.8199036,29.3361615 25.6604705,28.7448731 27.5166536,28.2055269 L19.4488232,11.9141423 Z M18.1988277,31.4195462 L13.8603991,0.675392308 C15.6747027,1.54773846 17.5223679,2.35675769 19.401975,3.10031538 L32.7565554,30.2440846 L32.7565554,7.14043077 C34.634033,7.54102692 36.5363545,7.87402692 38.4564214,8.14654615 L45.7739705,26.3975077 L45.7739705,8.86733462 C47.0857205,8.93777692 48.4066982,8.97406538 49.7340643,8.98402692 L49.7340643,35.3934885 C48.2455688,35.3934885 46.7655911,35.4326231 45.2948411,35.5094692 L36.6101759,14.1177769 L36.7088411,36.4003154 C35.1266491,36.6472192 33.5593634,36.9382385 32.0062741,37.2726615 L29.3657384,31.9403923 C27.0779839,32.5843346 24.815783,33.3086808 22.581975,34.1219692 L23.3585196,39.6235846 C22.0751625,40.04695 20.8038723,40.4987769 19.5474884,40.9819115 L18.7879795,35.5955654 C14.9968232,37.1595269 11.2951045,38.9689692 7.69772946,41.0146423 L0.10831875,41.0146423 C5.82805982,37.1296423 11.8963232,33.9504885 18.1988277,31.4195462 Z M58.0986,8.63252692 C56.7861402,8.75277692 55.4665821,8.84314231 54.1385062,8.9022 L54.1385062,13.5670462 C54.1385062,13.5670462 54.8852384,13.5300462 56.1181982,13.4553346 C57.569783,13.3678154 58.0986,13.2980846 58.0986,13.2980846 L58.0986,8.63252692 Z M71.9301804,27.8205846 C73.7444839,28.3229308 75.5445911,28.8715269 77.325533,29.4742 L79.8446893,11.9383346 L71.9301804,27.8205846 Z M67.2446491,37.2235654 C65.6794929,36.8912769 64.0973009,36.6066615 62.503042,36.3633154 L62.503042,16.0866038 L66.4631357,15.4191808 L66.4631357,30.2440846 L79.4691938,3.80758462 C81.4311402,3.08466154 83.359725,2.29058462 85.2535286,1.42891154 L81.1039125,30.8396423 C87.9238768,33.4538346 94.4691402,36.8066038 100.663752,40.8709115 L100.575734,41.0146423 L93.1084125,41.0146423 C89.0411357,38.7035654 84.8397027,36.6870654 80.5183098,34.9872 L79.6856893,40.8894115 C78.430725,40.4112577 77.1601446,39.9644115 75.878917,39.5460269 L76.7342518,33.5890269 C74.5409036,32.8291038 72.321292,32.1446038 70.0747071,31.5426423 L67.2446491,37.2235654 Z M66.4631357,12.1069692 C66.4631357,12.1069692 65.857658,12.2393154 64.4827339,12.4670077 C62.66985,12.7672769 62.503042,12.7829308 62.503042,12.7829308 L62.503042,8.11239231 C63.8332473,7.92027692 65.1528054,7.69685385 66.4631357,7.44212308 L66.4631357,12.1069692 Z" id="Fill-1" fill="#E30334" mask="url(#mask-2)"></path>
                    </g>
                    <g id="Group-6" transform="translate(0.000000, 261.266346)">
                        <mask id="mask-4" fill="white">
                            <use xlink:href="#path-3"></use>
                        </mask>
                        <g id="Clip-5"></g>
                        <path d="M0.897640179,4.28452885 L1.51092589,4.28452885 C2.61327857,4.28452885 2.73891696,3.57797115 2.73891696,2.76966346 C2.73891696,1.90372115 2.59127411,1.22064423 1.53364018,1.22064423 L0.897640179,1.22064423 L0.897640179,4.28452885 Z M1.61385,0.388855769 C3.21591696,0.388855769 3.61341696,1.25479808 3.61341696,2.74689423 C3.61341696,4.07960577 3.27270268,5.12770192 1.54570714,5.12770192 L0.897640179,5.12770192 L0.897640179,8.31610577 L-0.000283928571,8.31610577 L-0.000283928571,0.388855769 L1.61385,0.388855769 Z" id="Fill-4" fill="#1D1D1B" mask="url(#mask-4)"></path>
                    </g>
                    <path d="M7.38313661,263.637192 C7.38313661,263.102115 7.29227946,262.406942 6.46320804,262.406942 C5.56528393,262.406942 5.54256964,263.4095 5.54256964,263.876269 L5.54256964,267.725692 C5.54256964,268.181788 5.6902125,268.842096 6.45185089,268.842096 C7.21277946,268.842096 7.38313661,268.192462 7.38313661,267.566308 L7.38313661,263.637192 Z M8.28106071,267.452462 C8.28106071,268.864865 7.78134643,269.6625 6.45185089,269.6625 C5.14506964,269.6625 4.64535536,268.887635 4.64535536,267.714308 L4.64535536,263.807962 C4.64535536,262.680173 4.96335536,261.58725 6.46320804,261.58725 C8.04256071,261.58725 8.28106071,262.5215 8.28106071,263.785192 L8.28106071,267.452462 Z" id="Fill-7" fill="#1D1D1B"></path>
                    <polygon id="Fill-9" fill="#1D1D1B" points="13.8914183 264.093075 13.2667754 265.733171 12.4483513 267.657883 12.0281371 267.657883 11.2104228 265.733171 10.5850701 264.093075 10.5396415 264.093075 10.5396415 269.582594 9.64242723 269.582594 9.64242723 261.655344 10.5509987 261.655344 11.4943513 264.127229 12.2212085 266.063325 12.2552799 266.063325 13.0055612 264.070306 13.9254897 261.655344 14.8461281 261.655344 14.8461281 269.582594 13.948204 269.582594 13.948204 264.093075"></polygon>
                    <polygon id="Fill-11" fill="#1D1D1B" points="16.2745728 269.582452 16.2745728 261.655202 19.6611308 261.655202 19.6611308 262.48699 17.1724969 262.48699 17.1724969 265.141029 19.3317737 265.141029 19.3317737 265.972106 17.1724969 265.972106 17.1724969 268.76276 19.6611308 268.76276 19.6611308 269.582452"></polygon>
                    <path d="M20.6243585,267.748746 L20.6243585,263.831015 C20.6243585,262.703227 20.9423585,261.587535 22.4088496,261.587535 C23.635421,261.587535 24.1244879,262.259227 24.1585594,263.341477 L23.2606353,263.557073 C23.2712826,262.863323 23.0334924,262.418612 22.3967826,262.418612 C21.6699254,262.418612 21.5222826,263.159323 21.5222826,263.705073 L21.5222826,267.703919 C21.5222826,268.158592 21.6699254,268.830996 22.3854254,268.830996 L22.3967826,268.830996 C22.9759969,268.830996 23.3287781,268.511515 23.3287781,267.976438 L23.3287781,266.085881 L22.4088496,266.085881 L22.4088496,265.300342 L24.2259924,265.300342 L24.2259924,267.862592 C24.2259924,269.047304 23.4196353,269.662073 22.4088496,269.662073 C21.2156397,269.662073 20.6243585,268.967612 20.6243585,267.748746" id="Fill-13" fill="#1D1D1B"></path>
                    <path d="M27.1666406,262.487204 L26.4852121,262.487204 L26.4852121,265.277146 L27.2461406,265.277146 C28.0759219,265.277146 28.2917076,264.730685 28.2917076,263.910281 C28.2917076,263.056435 28.0759219,262.487204 27.1666406,262.487204 Z M28.4620647,269.582665 L27.3369978,266.108935 L26.4852121,266.108935 L26.4852121,269.582665 L25.5872879,269.582665 L25.5872879,261.655415 L27.3263504,261.655415 C28.6097076,261.655415 29.200279,262.396127 29.200279,263.910281 C29.200279,264.821762 28.9958504,265.551088 28.1781362,265.926781 L29.3819933,269.582665 L28.4620647,269.582665 Z" id="Fill-15" fill="#1D1D1B"></path>
                    <path d="M32.129783,263.273098 L31.8004259,265.118117 L31.4256402,266.974521 L32.8800643,266.974521 L32.4932116,265.095348 L32.1745018,263.273098 L32.129783,263.273098 Z M33.4024929,269.58231 L33.0383545,267.816983 L31.2779973,267.816983 L30.9259259,269.58231 L30.0620732,269.58231 L31.7436402,261.655771 L32.5847786,261.655771 L34.28835,269.58231 L33.4024929,269.58231 Z" id="Fill-17" fill="#1D1D1B"></path>
                    <polygon id="Fill-19" fill="#1D1D1B" points="36.0927871 264.161169 36.0927871 269.582381 35.1948629 269.582381 35.1948629 261.655842 36.0480683 261.655842 37.6834969 265.676035 38.2293496 267.122592 38.2740683 267.111208 38.2740683 261.655842 39.1719924 261.655842 39.1719924 269.582381 38.330854 269.582381 36.6954254 265.596342 36.1268585 264.161169"></polygon>
                    <path d="M42.1802866,263.273098 L41.8509295,265.118117 L41.4761438,266.974521 L42.9305679,266.974521 L42.544425,265.095348 L42.2257152,263.273098 L42.1802866,263.273098 Z M43.4529964,269.58231 L43.0895679,267.816983 L41.3285009,267.816983 L40.9764295,269.58231 L40.1125768,269.58231 L41.7941438,261.655771 L42.6352821,261.655771 L44.3395634,269.58231 L43.4529964,269.58231 Z" id="Fill-21" fill="#1D1D1B"></path>
                    <polygon id="Fill-23" fill="#1D1D1B" points="46.6097853 262.475392 46.6097853 269.582238 45.7012138 269.582238 45.7012138 262.475392 44.3603612 262.475392 44.3603612 261.6557 47.9506379 261.6557 47.9506379 262.475392"></polygon>
                    <polygon id="Fill-25" fill="#1D1D1B" points="48.800933 269.582452 48.800933 261.655202 52.1867813 261.655202 52.1867813 262.48699 49.6988571 262.48699 49.6988571 265.141029 51.8574241 265.141029 51.8574241 265.972106 49.6988571 265.972106 49.6988571 268.76276 52.1867813 268.76276 52.1867813 269.582452"></polygon>
                    <path d="M56.5237192,265.550875 L57.1370049,265.550875 C58.2393576,265.550875 58.364996,264.844317 58.364996,264.03601 C58.364996,263.170067 58.2173531,262.48699 57.1597192,262.48699 L56.5237192,262.48699 L56.5237192,265.550875 Z M57.239929,261.655202 C58.841996,261.655202 59.239496,262.521144 59.239496,264.01324 C59.239496,265.345952 58.8987817,266.394048 57.1717862,266.394048 L56.5237192,266.394048 L56.5237192,269.582452 L55.6257951,269.582452 L55.6257951,261.655202 L57.239929,261.655202 Z" id="Fill-27" fill="#1D1D1B"></path>
                    <path d="M61.918717,262.487204 L61.2372884,262.487204 L61.2372884,265.277146 L61.998217,265.277146 C62.8279982,265.277146 63.0437839,264.730685 63.0437839,263.910281 C63.0437839,263.056435 62.8279982,262.487204 61.918717,262.487204 Z M63.2141411,269.582665 L62.0890741,266.108935 L61.2372884,266.108935 L61.2372884,269.582665 L60.3393643,269.582665 L60.3393643,261.655415 L62.0784268,261.655415 C63.3617839,261.655415 63.9523554,262.396127 63.9523554,263.910281 C63.9523554,264.821762 63.7479268,265.551088 62.9302125,265.926781 L64.1340696,269.582665 L63.2141411,269.582665 Z" id="Fill-29" fill="#1D1D1B"></path>
                    <path d="M67.9383576,263.637192 C67.9383576,263.102115 67.8475004,262.406942 67.018429,262.406942 C66.1205049,262.406942 66.0977906,263.4095 66.0977906,263.876269 L66.0977906,267.725692 C66.0977906,268.181788 66.2454335,268.842096 67.0070719,268.842096 C67.7680004,268.842096 67.9383576,268.192462 67.9383576,267.566308 L67.9383576,263.637192 Z M68.8362817,267.452462 C68.8362817,268.864865 68.3365674,269.6625 67.0070719,269.6625 C65.7002906,269.6625 65.2005763,268.887635 65.2005763,267.714308 L65.2005763,263.807962 C65.2005763,262.680173 65.5185763,261.58725 67.018429,261.58725 C68.5977817,261.58725 68.8362817,262.5215 68.8362817,263.785192 L68.8362817,267.452462 Z" id="Fill-31" fill="#1D1D1B"></path>
                    <path d="M72.9355714,263.637192 C72.9355714,262.91925 72.6743571,262.487346 71.9013616,262.487346 L71.0942946,262.487346 L71.0942946,268.762404 L71.9013616,268.762404 C72.6395759,268.762404 72.9355714,268.340462 72.9355714,267.577692 L72.9355714,263.637192 Z M72.0376473,261.655558 C72.9802902,261.655558 73.5034286,261.951558 73.7192143,262.726423 C73.8895714,263.363962 73.8441429,264.286115 73.8441429,265.608154 C73.8441429,266.917385 73.8895714,267.782615 73.6965,268.409481 C73.4125714,269.309577 72.7425,269.582096 71.935433,269.582096 L70.1970804,269.582096 L70.1970804,261.655558 L72.0376473,261.655558 Z" id="Fill-33" fill="#1D1D1B"></path>
                    <path d="M78.8297156,261.667298 L78.8297156,267.452817 C78.8297156,268.86451 78.3413585,269.662144 77.0118629,269.662144 C75.7057915,269.662144 75.1940103,268.887279 75.1940103,267.714663 L75.1940103,261.667298 L76.0919344,261.667298 L76.0919344,267.726048 C76.0919344,268.181433 76.2395772,268.842452 77.0005058,268.842452 C77.7621442,268.842452 77.9317915,268.192817 77.9317915,267.566663 L77.9317915,261.667298 L78.8297156,261.667298 Z" id="Fill-35" fill="#1D1D1B"></path>
                    <path d="M83.6909987,263.398187 L82.7930746,263.557571 C82.8044317,262.86311 82.5659317,262.418398 81.9299317,262.418398 C81.2023647,262.418398 81.0547219,263.15911 81.0547219,263.705571 L81.0547219,267.703706 C81.0547219,268.158379 81.2023647,268.830783 81.9185746,268.830783 C82.509146,268.830783 82.7817174,268.47786 82.7930746,267.69161 L83.7130031,267.851706 C83.6789317,268.990167 83.1117844,269.662571 81.940579,269.662571 C80.748079,269.662571 80.1567978,268.967398 80.1567978,267.748533 L80.1567978,263.830802 C80.1567978,262.703013 80.4755076,261.587321 81.940579,261.587321 C83.1685701,261.587321 83.6909987,262.315937 83.6909987,263.398187" id="Fill-37" fill="#1D1D1B"></path>
                    <polygon id="Fill-39" fill="#1D1D1B" points="84.8132973 269.582452 84.8132973 261.655202 88.1998554 261.655202 88.1998554 262.48699 85.7112214 262.48699 85.7112214 265.141029 87.8704982 265.141029 87.8704982 265.972106 85.7112214 265.972106 85.7112214 268.76276 88.1998554 268.76276 88.1998554 269.582452"></polygon>
                    <path d="M90.7767201,262.487204 L90.0945817,262.487204 L90.0945817,265.277146 L90.8555103,265.277146 C91.6852915,265.277146 91.9010772,264.730685 91.9010772,263.910281 C91.9010772,263.056435 91.6852915,262.487204 90.7767201,262.487204 Z M92.0714344,269.582665 L90.9470772,266.108935 L90.0945817,266.108935 L90.0945817,269.582665 L89.1966576,269.582665 L89.1966576,261.655415 L90.9357201,261.655415 C92.2190772,261.655415 92.8103585,262.396127 92.8103585,263.910281 C92.8103585,264.821762 92.6059299,265.551088 91.7882156,265.926781 L92.9920728,269.582665 L92.0714344,269.582665 Z" id="Fill-41" fill="#1D1D1B"></path>
                    <path d="M95.7510067,269.662358 C94.4669397,269.662358 93.8990826,268.887492 93.8990826,267.851492 L94.7962969,267.668627 C94.7962969,268.261338 95.0120826,268.796415 95.7510067,268.796415 C96.6709353,268.796415 96.727721,268.170262 96.727721,267.42955 C96.727721,266.496012 96.6027924,266.301762 95.6601496,265.904012 C94.171654,265.265762 93.9558683,264.628223 93.9558683,263.671204 C93.9558683,262.452338 94.569154,261.587108 95.8191496,261.587108 C97.1933638,261.587108 97.6142879,262.544127 97.6142879,263.330377 L96.727721,263.557358 C96.727721,262.840127 96.4665067,262.441665 95.773721,262.441665 C95.0007254,262.441665 94.8530826,263.113358 94.8530826,263.659819 C94.8530826,264.309454 94.9212254,264.650992 96.091721,265.106377 C97.4545781,265.652838 97.6142879,266.256935 97.6142879,267.418877 C97.6142879,268.773646 97.1365781,269.662358 95.7510067,269.662358" id="Fill-43" fill="#1D1D1B"></path>
                    <path d="M102.883221,263.273098 L102.553864,265.118117 L102.179079,266.974521 L103.633503,266.974521 L103.24665,265.095348 L102.92794,263.273098 L102.883221,263.273098 Z M104.155931,269.58231 L103.791793,267.816983 L102.031436,267.816983 L101.679364,269.58231 L100.815512,269.58231 L102.497079,261.655771 L103.338217,261.655771 L105.041788,269.58231 L104.155931,269.58231 Z" id="Fill-45" fill="#1D1D1B"></path>
                    <polygon id="Fill-47" fill="#1D1D1B" points="106.846154 264.161169 106.846154 269.582381 105.94823 269.582381 105.94823 261.655842 106.801436 261.655842 108.436864 265.676035 108.982717 267.122592 109.027436 267.111208 109.027436 261.655842 109.92536 261.655842 109.92536 269.582381 109.084221 269.582381 107.448793 265.596342 106.880226 264.161169"></polygon>
                    <path d="M114.058721,263.637192 C114.058721,262.91925 113.797507,262.487346 113.025221,262.487346 L112.218154,262.487346 L112.218154,268.762404 L113.025221,268.762404 C113.763435,268.762404 114.058721,268.340462 114.058721,267.577692 L114.058721,263.637192 Z M113.160797,261.655558 C114.10415,261.655558 114.627288,261.951558 114.842364,262.726423 C115.013431,263.363962 114.967292,264.286115 114.967292,265.608154 C114.967292,266.917385 115.013431,267.782615 114.81965,268.409481 C114.536431,269.309577 113.86565,269.582096 113.059292,269.582096 L111.32094,269.582096 L111.32094,261.655558 L113.160797,261.655558 Z" id="Fill-49" fill="#1D1D1B"></path>
                    <polygon id="Fill-51" fill="#1D1D1B" points="118.793159 269.582452 118.793159 261.655202 122.179717 261.655202 122.179717 262.48699 119.691083 262.48699 119.691083 265.141029 121.85036 265.141029 121.85036 265.972106 119.691083 265.972106 119.691083 268.76276 122.179717 268.76276 122.179717 269.582452"></polygon>
                    <polygon id="Fill-53" fill="#1D1D1B" points="125.81308 269.593552 124.710727 266.450687 123.620442 269.593552 122.677089 269.593552 124.257151 265.42536 122.802727 261.655629 123.74537 261.655629 124.710727 264.446283 125.688151 261.655629 126.630794 261.655629 125.143008 265.42536 126.756433 269.593552"></polygon>
                    <path d="M128.583726,265.550875 L129.197012,265.550875 C130.299364,265.550875 130.424293,264.844317 130.424293,264.03601 C130.424293,263.170067 130.27665,262.48699 129.219726,262.48699 L128.583726,262.48699 L128.583726,265.550875 Z M129.299226,261.655202 C130.902003,261.655202 131.298793,262.521144 131.298793,264.01324 C131.298793,265.345952 130.958079,266.394048 129.231083,266.394048 L128.583726,266.394048 L128.583726,269.582452 L127.685802,269.582452 L127.685802,261.655202 L129.299226,261.655202 Z" id="Fill-55" fill="#1D1D1B"></path>
                    <path d="M135.069151,263.637192 C135.069151,263.102115 134.978294,262.406942 134.148513,262.406942 C133.250589,262.406942 133.227875,263.4095 133.227875,263.876269 L133.227875,267.725692 C133.227875,268.181788 133.376227,268.842096 134.137866,268.842096 C134.898794,268.842096 135.069151,268.192462 135.069151,267.566308 L135.069151,263.637192 Z M135.967075,267.452462 C135.967075,268.864865 135.466651,269.6625 134.137866,269.6625 C132.831084,269.6625 132.33137,268.887635 132.33137,267.714308 L132.33137,263.807962 C132.33137,262.680173 132.64937,261.58725 134.148513,261.58725 C135.727866,261.58725 135.967075,262.5215 135.967075,263.785192 L135.967075,267.452462 Z" id="Fill-57" fill="#1D1D1B"></path>
                    <path d="M138.907369,262.487204 L138.22523,262.487204 L138.22523,265.277146 L138.986159,265.277146 C139.81594,265.277146 140.031726,264.730685 140.031726,263.910281 C140.031726,263.056435 139.81594,262.487204 138.907369,262.487204 Z M140.202083,269.582665 L139.077726,266.108935 L138.22523,266.108935 L138.22523,269.582665 L137.327306,269.582665 L137.327306,261.655415 L139.066369,261.655415 C140.349726,261.655415 140.941007,262.396127 140.941007,263.910281 C140.941007,264.821762 140.736579,265.551088 139.918864,265.926781 L141.122721,269.582665 L140.202083,269.582665 Z" id="Fill-59" fill="#1D1D1B"></path>
                    <polygon id="Fill-61" fill="#1D1D1B" points="143.926658 262.475392 143.926658 269.582238 143.018087 269.582238 143.018087 262.475392 141.677234 262.475392 141.677234 261.6557 145.267511 261.6557 145.267511 262.475392"></polygon>
                    <polygon id="Fill-63" fill="#1D1D1B" points="146.117877 269.582452 146.117877 261.655202 149.504435 261.655202 149.504435 262.48699 147.015801 262.48699 147.015801 265.141029 149.175078 265.141029 149.175078 265.972106 147.015801 265.972106 147.015801 268.76276 149.504435 268.76276 149.504435 269.582452"></polygon>
                    <path d="M152.0813,262.487204 L151.399161,262.487204 L151.399161,265.277146 L152.16009,265.277146 C152.989871,265.277146 153.205657,264.730685 153.205657,263.910281 C153.205657,263.056435 152.989871,262.487204 152.0813,262.487204 Z M153.376014,269.582665 L152.251657,266.108935 L151.399161,266.108935 L151.399161,269.582665 L150.501237,269.582665 L150.501237,261.655415 L152.2403,261.655415 C153.523657,261.655415 154.114938,262.396127 154.114938,263.910281 C154.114938,264.821762 153.910509,265.551088 153.092795,265.926781 L154.296652,269.582665 L153.376014,269.582665 Z" id="Fill-65" fill="#1D1D1B"></path>
                    <path d="M157.055586,269.662358 C155.771519,269.662358 155.203662,268.887492 155.203662,267.851492 L156.100876,267.668627 C156.100876,268.261338 156.316662,268.796415 157.055586,268.796415 C157.975515,268.796415 158.0323,268.170262 158.0323,267.42955 C158.0323,266.496012 157.907372,266.301762 156.964729,265.904012 C155.476233,265.265762 155.260448,264.628223 155.260448,263.671204 C155.260448,262.452338 155.873733,261.587108 157.123729,261.587108 C158.497943,261.587108 158.918867,262.544127 158.918867,263.330377 L158.0323,263.557358 C158.0323,262.840127 157.771086,262.441665 157.0783,262.441665 C156.305305,262.441665 156.157662,263.113358 156.157662,263.659819 C156.157662,264.309454 156.225805,264.650992 157.3963,265.106377 C158.759158,265.652838 158.918867,266.256935 158.918867,267.418877 C158.918867,268.773646 158.441158,269.662358 157.055586,269.662358" id="Fill-67" fill="#1D1D1B"></path>
                    <path d="M28.9328183,276.934779 L28.6034612,278.779798 L28.2286754,280.636202 L29.6830996,280.636202 L29.2962469,278.757029 L28.9775371,276.934779 L28.9328183,276.934779 Z M30.2055281,283.24399 L29.8413897,281.478663 L28.0810326,281.478663 L27.7289612,283.24399 L26.8651085,283.24399 L28.5466754,275.317452 L29.3878138,275.317452 L31.0913853,283.24399 L30.2055281,283.24399 Z" id="Fill-69" fill="#1D1D1B"></path>
                    <path d="M33.6568929,283.324038 C32.3728259,283.324038 31.8056786,282.549173 31.8056786,281.513173 L32.7028929,281.330308 C32.7028929,281.923019 32.9186786,282.458096 33.6568929,282.458096 C34.5775313,282.458096 34.634317,281.831942 34.634317,281.091231 C34.634317,280.157692 34.5093884,279.964154 33.5660357,279.565692 C32.0775402,278.927442 31.8624643,278.289904 31.8624643,277.332885 C31.8624643,276.114019 32.47575,275.248788 33.7257455,275.248788 C35.0999598,275.248788 35.5201741,276.205808 35.5201741,276.992058 L34.634317,277.219038 C34.634317,276.501808 34.3731027,276.103346 33.6796071,276.103346 C32.9073214,276.103346 32.7589688,276.775038 32.7589688,277.3215 C32.7589688,277.971135 32.8278214,278.312673 33.9976071,278.768058 C35.3611741,279.314519 35.5201741,279.918615 35.5201741,281.080558 C35.5201741,282.435327 35.0431741,283.324038 33.6568929,283.324038" id="Fill-71" fill="#1D1D1B"></path>
                    <path d="M38.35875,283.324038 C37.074683,283.324038 36.5075357,282.549173 36.5075357,281.513173 L37.40475,281.330308 C37.40475,281.923019 37.6205357,282.458096 38.35875,282.458096 C39.2793884,282.458096 39.3361741,281.831942 39.3361741,281.091231 C39.3361741,280.157692 39.2112455,279.964154 38.2678929,279.565692 C36.7793973,278.927442 36.5643214,278.289904 36.5643214,277.332885 C36.5643214,276.114019 37.1776071,275.248788 38.4276027,275.248788 C39.801817,275.248788 40.2220313,276.205808 40.2220313,276.992058 L39.3361741,277.219038 C39.3361741,276.501808 39.0749598,276.103346 38.3814643,276.103346 C37.6091786,276.103346 37.4608259,276.775038 37.4608259,277.3215 C37.4608259,277.971135 37.5296786,278.312673 38.6994643,278.768058 C40.0630313,279.314519 40.2220313,279.918615 40.2220313,281.080558 C40.2220313,282.435327 39.7450313,283.324038 38.35875,283.324038" id="Fill-73" fill="#1D1D1B"></path>
                    <g id="Group-77" transform="translate(41.169643, 274.785577)">
                        <mask id="mask-6" fill="white">
                            <use xlink:href="#path-5"></use>
                        </mask>
                        <g id="Clip-76"></g>
                        <path d="M2.9363183,2.51329615 C2.9363183,1.97821923 2.84546116,1.28304615 2.01638973,1.28304615 C1.11846563,1.28304615 1.09575134,2.28560385 1.09575134,2.75237308 L1.09575134,6.60179615 C1.09575134,7.05789231 1.2433942,7.7182 2.00503259,7.7182 C2.76596116,7.7182 2.9363183,7.06856538 2.9363183,6.44241154 L2.9363183,2.51329615 Z M3.83424241,6.32856538 C3.83424241,7.74096923 3.33452813,8.53860385 2.00503259,8.53860385 C0.698251339,8.53860385 0.198537054,7.76373846 0.198537054,6.59041154 L0.198537054,2.68406538 C0.198537054,1.55627692 0.516537054,0.463353846 2.01638973,0.463353846 C3.59574241,0.463353846 3.83424241,1.39760385 3.83424241,2.66129615 L3.83424241,6.32856538 Z" id="Fill-75" fill="#1D1D1B" mask="url(#mask-6)"></path>
                    </g>
                    <g id="Group-80" transform="translate(46.138393, 274.785577)">
                        <mask id="mask-8" fill="white">
                            <use xlink:href="#path-7"></use>
                        </mask>
                        <g id="Clip-79"></g>
                        <path d="M3.69192321,2.27429038 L2.79399911,2.433675 C2.80606607,1.73921346 2.56685625,1.29450192 1.93156607,1.29450192 C1.20399911,1.29450192 1.05564643,2.03521346 1.05564643,2.581675 L1.05564643,6.57980962 C1.05564643,7.03448269 1.20399911,7.70688654 1.91949911,7.70688654 C2.51007054,7.70688654 2.78335179,7.35396346 2.79399911,6.56771346 L3.7146375,6.72780962 C3.68056607,7.86627115 3.11270893,8.538675 1.94221339,8.538675 C0.749003571,8.538675 0.158432143,7.84350192 0.158432143,6.62463654 L0.158432143,2.70690577 C0.158432143,1.57911731 0.477141964,0.463425 1.94221339,0.463425 C3.16949464,0.463425 3.69192321,1.19204038 3.69192321,2.27429038" id="Fill-78" fill="#1D1D1B" mask="url(#mask-8)"></path>
                    </g>
                    <polygon id="Fill-81" fill="#1D1D1B" points="50.987183 283.244346 51.8957545 283.244346 51.8957545 275.317096 50.987183 275.317096"></polygon>
                    <path d="M54.9737531,276.934779 L54.644396,278.779798 L54.2696103,280.636202 L55.7240344,280.636202 L55.3378915,278.757029 L55.0191817,276.934779 L54.9737531,276.934779 Z M56.2464629,283.24399 L55.8830344,281.478663 L54.1219674,281.478663 L53.769896,283.24399 L52.9060433,283.24399 L54.5876103,275.317452 L55.4287487,275.317452 L57.1330299,283.24399 L56.2464629,283.24399 Z" id="Fill-83" fill="#1D1D1B"></path>
                    <polygon id="Fill-84" fill="#1D1D1B" points="59.4031808 276.137073 59.4031808 283.243919 58.4946094 283.243919 58.4946094 276.137073 57.1537567 276.137073 57.1537567 275.317381 60.7440335 275.317381 60.7440335 276.137073"></polygon>
                    <polygon id="Fill-85" fill="#1D1D1B" points="61.6281161 283.244346 62.5366875 283.244346 62.5366875 275.317096 61.6281161 275.317096"></polygon>
                    <path d="M66.6718942,277.298873 C66.6718942,276.763796 66.5810371,276.068623 65.7519656,276.068623 C64.8540415,276.068623 64.8313272,277.071181 64.8313272,277.53795 L64.8313272,281.387373 C64.8313272,281.843469 64.9789701,282.503777 65.7406085,282.503777 C66.5015371,282.503777 66.6718942,281.854142 66.6718942,281.227988 L66.6718942,277.298873 Z M67.5698183,281.114142 C67.5698183,282.526546 67.070104,283.324181 65.7406085,283.324181 C64.4338272,283.324181 63.9341129,282.549315 63.9341129,281.375988 L63.9341129,277.469642 C63.9341129,276.341854 64.2521129,275.248931 65.7519656,275.248931 C67.3313183,275.248931 67.5698183,276.183181 67.5698183,277.446873 L67.5698183,281.114142 Z" id="Fill-86" fill="#1D1D1B"></path>
                    <polygon id="Fill-87" fill="#1D1D1B" points="69.7946826 277.82285 69.7946826 283.244062 68.8967585 283.244062 68.8967585 275.317523 69.749254 275.317523 71.3846826 279.337715 71.9305353 280.784273 71.9759638 280.772888 71.9759638 275.317523 72.8738879 275.317523 72.8738879 283.244062 72.0327496 283.244062 70.3966112 279.258023 69.828754 277.82285"></polygon>
                    <path d="M79.3801112,277.298873 C79.3801112,276.763796 79.289254,276.068623 78.4601826,276.068623 C77.5622585,276.068623 77.5395442,277.071181 77.5395442,277.53795 L77.5395442,281.387373 C77.5395442,281.843469 77.6871871,282.503777 78.4488254,282.503777 C79.209754,282.503777 79.3801112,281.854142 79.3801112,281.227988 L79.3801112,277.298873 Z M80.2780353,281.114142 C80.2780353,282.526546 79.778321,283.324181 78.4488254,283.324181 C77.1420442,283.324181 76.6423299,282.549315 76.6423299,281.375988 L76.6423299,277.469642 C76.6423299,276.341854 76.9603299,275.248931 78.4601826,275.248931 C80.0395353,275.248931 80.2780353,276.183181 80.2780353,277.446873 L80.2780353,281.114142 Z" id="Fill-88" fill="#1D1D1B"></path>
                    <polygon id="Fill-89" fill="#1D1D1B" points="81.6391888 283.244133 81.6391888 275.316883 85.0250371 275.316883 85.0250371 276.148671 82.5371129 276.148671 82.5371129 278.80271 84.6956799 278.80271 84.6956799 279.633787 82.5371129 279.633787 82.5371129 283.244133"></polygon>
                    <path d="M90.0779719,276.934779 L89.7486147,278.779798 L89.373829,280.636202 L90.8282531,280.636202 L90.4414004,278.757029 L90.1226906,276.934779 L90.0779719,276.934779 Z M91.3506817,283.24399 L90.9865433,281.478663 L89.2261862,281.478663 L88.8741147,283.24399 L88.0102621,283.24399 L89.691829,275.317452 L90.5329674,275.317452 L92.2365388,283.24399 L91.3506817,283.24399 Z" id="Fill-90" fill="#1D1D1B"></path>
                    <polygon id="Fill-91" fill="#1D1D1B" points="96.0068263 276.137073 93.7233308 282.424227 95.9954692 282.424227 95.9954692 283.243919 92.8026924 283.243919 92.8026924 282.424227 95.1089022 276.137073 92.9162638 276.137073 92.9162638 275.317381 96.0068263 275.317381"></polygon>
                    <polygon id="Fill-92" fill="#1D1D1B" points="97.0507607 283.244133 97.0507607 275.316883 100.436609 275.316883 100.436609 276.148671 97.9486848 276.148671 97.9486848 278.80271 100.107252 278.80271 100.107252 279.633787 97.9486848 279.633787 97.9486848 282.42444 100.436609 282.42444 100.436609 283.244133"></polygon>
                    <path d="M103.013545,276.148885 L102.332116,276.148885 L102.332116,278.938827 L103.093045,278.938827 C103.922826,278.938827 104.138612,278.392365 104.138612,277.571962 C104.138612,276.718115 103.922826,276.148885 103.013545,276.148885 Z M104.308969,283.244346 L103.183902,279.770615 L102.332116,279.770615 L102.332116,283.244346 L101.434192,283.244346 L101.434192,275.317096 L103.173254,275.317096 C104.456612,275.317096 105.047183,276.057808 105.047183,277.571962 C105.047183,278.483442 104.842754,279.212769 104.02504,279.588462 L105.228897,283.244346 L104.308969,283.244346 Z" id="Fill-93" fill="#1D1D1B"></path>
                    <path d="M107.919901,279.462662 L107.260477,279.462662 L107.260477,282.435469 L107.96533,282.435469 C108.954111,282.435469 109.101754,281.683373 109.101754,280.818142 C109.101754,279.9522 108.84054,279.462662 107.919901,279.462662 Z M107.874473,276.136931 L107.260477,276.136931 L107.260477,278.677123 L107.863116,278.677123 C108.692897,278.677123 109.032901,278.221738 109.032901,277.402046 C109.032901,276.580931 108.703544,276.136931 107.874473,276.136931 Z M109.066973,279.086969 C109.760468,279.303277 109.964897,279.986354 109.964897,280.909219 C109.964897,282.549315 109.306183,283.243777 107.88583,283.243777 L106.363263,283.243777 L106.363263,275.317238 L108.033473,275.317238 C109.39704,275.317238 109.896754,276.080008 109.896754,277.412719 C109.896754,278.244508 109.692325,278.688508 109.066973,279.041431 L109.066973,279.086969 Z" id="Fill-94" fill="#1D1D1B"></path>
                    <path d="M112.905261,276.934779 L112.575904,278.779798 L112.201118,280.636202 L113.655542,280.636202 L113.2694,278.757029 L112.95069,276.934779 L112.905261,276.934779 Z M114.177971,283.24399 L113.814542,281.478663 L112.053475,281.478663 L111.701404,283.24399 L110.837551,283.24399 L112.519118,275.317452 L113.360257,275.317452 L115.064538,283.24399 L114.177971,283.24399 Z" id="Fill-95" fill="#1D1D1B"></path>
                    <polygon id="Fill-96" fill="#1D1D1B" points="116.039478 283.244346 116.948049 283.244346 116.948049 275.317096 116.039478 275.317096"></polygon>
                    <path d="M121.184689,275.317167 L121.184689,281.216533 C121.184689,282.595494 120.594118,283.32411 119.366837,283.32411 C118.719479,283.32411 118.184984,283.085033 117.866984,282.572013 L118.526408,282.036937 C118.696765,282.276013 119.037479,282.504417 119.355479,282.504417 C120.025551,282.504417 120.286765,282.025552 120.286765,281.342475 L120.286765,275.317167 L121.184689,275.317167 Z" id="Fill-97" fill="#1D1D1B"></path>
                    <path d="M124.375408,276.934779 L124.04605,278.779798 L123.671265,280.636202 L125.125689,280.636202 L124.739546,278.757029 L124.420836,276.934779 L124.375408,276.934779 Z M125.648117,283.24399 L125.284689,281.478663 L123.523622,281.478663 L123.17155,283.24399 L122.307698,283.24399 L123.989265,275.317452 L124.830403,275.317452 L126.534684,283.24399 L125.648117,283.24399 Z" id="Fill-98" fill="#1D1D1B"></path>
                    <polygon id="Fill-99" fill="#1D1D1B" points="128.33905 277.82285 128.33905 283.244062 127.441126 283.244062 127.441126 275.317523 128.294332 275.317523 129.92976 279.337715 130.475613 280.784273 130.520332 280.772888 130.520332 275.317523 131.418256 275.317523 131.418256 283.244062 130.577117 283.244062 128.941689 279.258023 128.373122 277.82285"></polygon>
                </g>
            </g>
        </g>
    </g>
</svg>