<?xml version="1.0" encoding="UTF-8"?>
<svg width="18px" height="18px" viewBox="0 0 18 18" version="1.1" xmlns="http://www.w3.org/2000/svg" xmlns:xlink="http://www.w3.org/1999/xlink">
    <!-- Generator: Sketch 49.2 (51160) - http://www.bohemiancoding.com/sketch -->
    <title>Group 8</title>
    <desc>Created with Sketch.</desc>
    <defs></defs>
    <g id="Symbols" stroke="none" stroke-width="1" fill="none" fill-rule="evenodd">
        <g id="header" transform="translate(-1223.000000, -41.000000)">
            <g transform="translate(0.000000, -197.000000)" id="Group-8">
                <g transform="translate(1216.000000, 231.000000)">
                    <rect id="Rectangle-3-Copy" x="0" y="0" width="32" height="32"></rect>
                    <g id="linkedin-logo" transform="translate(7.000000, 7.000000)" fill="#000000" fill-rule="nonzero">
                        <path d="M18,10.5712333 L18,17.2259481 L14.1420172,17.2259481 L14.1420172,11.0169259 C14.1420172,9.45716895 13.5840016,8.39269579 12.1875397,8.39269579 C11.1215181,8.39269579 10.4871279,9.11007269 10.2080364,9.80401411 C10.1062595,10.0520954 10.0800619,10.3973922 10.0800619,10.7446558 L10.0800619,17.2259481 L6.22078179,17.2259481 C6.22078179,17.2259481 6.27275834,6.70990251 6.22078179,5.62036175 L10.0796853,5.62036175 L10.0796853,7.26540717 C10.0718595,7.2777108 10.0616902,7.29097696 10.0543248,7.30290395 L10.0796853,7.30290395 L10.0796853,7.26540717 C10.5923784,6.47575691 11.5079943,5.34771501 13.5574274,5.34771501 C16.0965365,5.34767316 18,7.00644507 18,10.5712333 Z M2.18381045,0.0258932715 C0.86355573,0.0258932715 0,0.891876248 0,2.03067337 C0,3.14465398 0.83857183,4.03691818 2.13258718,4.03691818 L2.15836621,4.03691818 C3.50419072,4.03691818 4.34117229,3.14482138 4.34117229,2.03067337 C4.31581174,0.891876248 3.50419072,0.0258932715 2.18381045,0.0258932715 Z M0.229207402,17.2259481 L4.08702283,17.2259481 L4.08702283,5.62036175 L0.229207402,5.62036175 L0.229207402,17.2259481 Z" id="LinkedIn"></path>
                    </g>
                </g>
            </g>
        </g>
    </g>
</svg>