<?xml version="1.0" encoding="UTF-8"?>
<svg width="11px" height="18px" viewBox="0 0 11 18" version="1.1" xmlns="http://www.w3.org/2000/svg" xmlns:xlink="http://www.w3.org/1999/xlink">
    <!-- Generator: Sketch 49.2 (51160) - http://www.bohemiancoding.com/sketch -->
    <title>Group 5</title>
    <desc>Created with Sketch.</desc>
    <defs></defs>
    <g id="Symbols" stroke="none" stroke-width="1" fill="none" fill-rule="evenodd">
        <g id="header" transform="translate(-1184.000000, -41.000000)">
            <g transform="translate(0.000000, -197.000000)" id="Group-5">
                <g transform="translate(1174.000000, 231.000000)">
                    <rect id="Rectangle-3-Copy-3" x="0" y="0" width="32" height="32"></rect>
                    <g id="facebook-logo" transform="translate(10.000000, 7.000000)" fill="#000000" fill-rule="nonzero">
                        <path d="M10.3276289,0.00374520146 L7.75752577,0 C4.87010309,0 3.00412371,1.73870978 3.00412371,4.42982429 L3.00412371,6.4722699 L0.42,6.4722699 C0.196701031,6.4722699 0.0158762887,6.63668425 0.0158762887,6.83948691 L0.0158762887,9.79875784 C0.0158762887,10.0015605 0.196907216,10.1657876 0.42,10.1657876 L3.00412371,10.1657876 L3.00412371,17.6329703 C3.00412371,17.8357729 3.18494845,18 3.40824742,18 L6.77979381,18 C7.00309278,18 7.18391753,17.8355857 7.18391753,17.6329703 L7.18391753,10.1657876 L10.2053608,10.1657876 C10.4286598,10.1657876 10.6094845,10.0015605 10.6094845,9.79875784 L10.6107216,6.83948691 C10.6107216,6.74211167 10.5680412,6.64885615 10.4923711,6.57994445 C10.416701,6.51103274 10.3136082,6.4722699 10.2063918,6.4722699 L7.18391753,6.4722699 L7.18391753,4.74086327 C7.18391753,3.9086795 7.40226804,3.48622078 8.59587629,3.48622078 L10.3272165,3.485659 C10.5503093,3.485659 10.731134,3.32124466 10.731134,3.11862926 L10.731134,0.370774945 C10.731134,0.168346806 10.5505155,0.00411972161 10.3276289,0.00374520146 Z" id="Shape"></path>
                    </g>
                </g>
            </g>
        </g>
    </g>
</svg>