<?xml version="1.0" encoding="UTF-8"?>
<svg width="18px" height="13px" viewBox="0 0 18 13" version="1.1" xmlns="http://www.w3.org/2000/svg" xmlns:xlink="http://www.w3.org/1999/xlink">
    <!-- Generator: Sketch 49.2 (51160) - http://www.bohemiancoding.com/sketch -->
    <title>Group 9</title>
    <desc>Created with Sketch.</desc>
    <defs></defs>
    <g id="Symbols" stroke="none" stroke-width="1" fill="none" fill-rule="evenodd">
        <g id="header" transform="translate(-1265.000000, -44.000000)">
            <g transform="translate(0.000000, -197.000000)" id="Group-9">
                <g transform="translate(1258.000000, 231.000000)">
                    <rect id="Rectangle-3" x="0" y="0" width="32" height="32"></rect>
                    <g id="youtube" transform="translate(7.000000, 10.000000)" fill="#000000" fill-rule="nonzero">
                        <path d="M17.2984065,1.14659355 C16.6486645,0.374219355 15.4490516,0.0591612903 13.1580581,0.0591612903 L4.84176774,0.0591612903 C2.49834194,0.0591612903 1.27840645,0.394541935 0.631103226,1.21685161 C0,2.01860645 0,3.19992903 0,4.83490968 L0,7.95117419 C0,11.1186516 0.7488,12.7268645 4.84176774,12.7268645 L13.1581161,12.7268645 C15.1448516,12.7268645 16.2457548,12.4488516 16.9579742,11.7672323 C17.6883677,11.0682516 18,9.92699355 18,7.95117419 L18,4.83490968 C18,3.11068387 17.9511677,1.92239355 17.2984065,1.14659355 Z M11.5560581,6.82327097 L7.77965806,8.79694194 C7.69523226,8.84107097 7.60290968,8.86296129 7.51070323,8.86296129 C7.40630323,8.86296129 7.30213548,8.83485806 7.20987097,8.779 C7.03614194,8.67372903 6.93005806,8.48542581 6.93005806,8.28231613 L6.93005806,4.34763226 C6.93005806,4.14487097 7.03585161,3.95674194 7.20923226,3.8514129 C7.38267097,3.74608387 7.59838065,3.73888387 7.77832258,3.83236774 L11.5547226,5.79332258 C11.7468581,5.89307742 11.8675161,6.09142581 11.8678065,6.30783226 C11.8680387,6.5244129 11.7479032,6.72305161 11.5560581,6.82327097 Z" id="XMLID_823_"></path>
                    </g>
                </g>
            </g>
        </g>
    </g>
</svg>